<svg xmlns="http://www.w3.org/2000/svg" viewBox="0 0 980 720" role="img" aria-labelledby="title desc">
  <title id="title">Външно ВиК трасе</title>
  <desc id="desc">Техническа илюстрация на улично ВиК трасе с водопровод, канализация и ревизионни точки</desc>
  <defs>
    <linearGradient id="sky" x1="0" y1="0" x2="0" y2="1">
      <stop offset="0" stop-color="#f7fafb"/>
      <stop offset="1" stop-color="#e8f0f3"/>
    </linearGradient>
    <linearGradient id="trench" x1="0" y1="0" x2="1" y2="1">
      <stop offset="0" stop-color="#d7c2a1"/>
      <stop offset="1" stop-color="#a4825d"/>
    </linearGradient>
    <filter id="softShadow" x="-20%" y="-20%" width="140%" height="140%">
      <feDropShadow dx="0" dy="16" stdDeviation="18" flood-color="#16313f" flood-opacity=".14"/>
    </filter>
  </defs>
  <rect width="980" height="720" fill="url(#sky)"/>
  <path d="M0 245 C150 210 265 226 410 198 C590 164 755 165 980 120 V720 H0 Z" fill="#e5ebed"/>
  <path d="M0 353 C154 326 304 330 462 304 C662 272 790 260 980 220 V720 H0 Z" fill="#dfe6e8"/>
  <g filter="url(#softShadow)">
    <path d="M102 555 L436 250 C477 212 547 214 588 254 L872 528 C898 553 886 598 849 606 L188 654 C131 658 60 594 102 555 Z" fill="#ffffff"/>
  </g>
  <path d="M145 574 L455 292 C486 264 540 266 572 296 L824 539 L187 588 Z" fill="#eef4f5"/>
  <path d="M175 586 L461 326 C490 300 536 302 565 329 L786 542 L190 586 Z" fill="url(#trench)" opacity=".95"/>
  <path d="M234 560 L466 349 C493 324 531 326 558 351 L722 508" fill="none" stroke="#7c654d" stroke-width="74" stroke-linecap="round" stroke-linejoin="round" opacity=".28"/>
  <path d="M232 558 L466 345 C493 320 532 322 559 348 L724 508" fill="none" stroke="#0f6f8f" stroke-width="34" stroke-linecap="round" stroke-linejoin="round"/>
  <path d="M230 560 L464 347 C493 321 532 323 558 349 L723 509" fill="none" stroke="#d7f0f6" stroke-width="11" stroke-linecap="round" stroke-linejoin="round" opacity=".95"/>
  <path d="M251 612 L482 402 C504 382 538 383 560 403 L690 528" fill="none" stroke="#39434a" stroke-width="40" stroke-linecap="round" stroke-linejoin="round"/>
  <path d="M252 612 L482 402 C504 382 538 383 560 403 L690 528" fill="none" stroke="#606d74" stroke-width="14" stroke-linecap="round" stroke-linejoin="round"/>
  <g fill="#f2b84b" stroke="#153342" stroke-width="8">
    <circle cx="232" cy="558" r="24"/>
    <circle cx="467" cy="345" r="24"/>
    <circle cx="724" cy="508" r="24"/>
  </g>
  <g fill="#ffffff" stroke="#39434a" stroke-width="7">
    <circle cx="252" cy="612" r="22"/>
    <circle cx="690" cy="528" r="22"/>
  </g>
  <g transform="translate(110 144)">
    <rect x="0" y="0" width="238" height="88" rx="8" fill="#16313f"/>
    <path d="M28 58 H198" stroke="#f2b84b" stroke-width="8" stroke-linecap="round"/>
    <path d="M28 30 H122" stroke="#ffffff" stroke-width="9" stroke-linecap="round"/>
    <path d="M150 30 H204" stroke="#d7f0f6" stroke-width="9" stroke-linecap="round"/>
  </g>
  <g transform="translate(668 106)">
    <path d="M72 0 L144 124 H0 Z" fill="#f2b84b" stroke="#153342" stroke-width="8" stroke-linejoin="round"/>
    <path d="M72 42 V80" stroke="#153342" stroke-width="10" stroke-linecap="round"/>
    <circle cx="72" cy="98" r="6" fill="#153342"/>
  </g>
  <g stroke="#9aa8ad" stroke-width="3" opacity=".65">
    <path d="M75 640 H901"/>
    <path d="M120 618 H850"/>
    <path d="M182 256 H404"/>
    <path d="M615 230 H842"/>
  </g>
</svg>
